<svg xmlns="http://www.w3.org/2000/svg" version="1.1" xmlns:xlink="http://www.w3.org/1999/xlink" xmlns:svgjs="http://svgjs.dev/svgjs" width="1000" height="623" viewBox="0 0 1000 623"><g transform="matrix(1,0,0,1,-0.6060606060605664,0.2522267206477409)"><svg viewBox="0 0 396 247" data-background-color="#ffffff" preserveAspectRatio="xMidYMid meet" height="623" width="1000" xmlns="http://www.w3.org/2000/svg" xmlns:xlink="http://www.w3.org/1999/xlink"><g id="tight-bounds" transform="matrix(1,0,0,1,0.2400000000000091,-0.09999999999999432)"><svg viewBox="0 0 395.52 247.2" height="247.2" width="395.52"><g><svg></svg></g><g><svg viewBox="0 0 395.52 247.2" height="247.2" width="395.52"><g transform="matrix(1,0,0,1,75.54432000000001,97.61119510588235)"><svg viewBox="0 0 244.43135999999996 51.9776097882353" height="51.9776097882353" width="244.43135999999996"><g><svg viewBox="0 0 244.43135999999996 51.9776097882353" height="51.9776097882353" width="244.43135999999996"><g><svg viewBox="0 0 244.43135999999996 51.9776097882353" height="51.9776097882353" width="244.43135999999996"><g><svg viewBox="0 0 244.43135999999996 51.9776097882353" height="51.9776097882353" width="244.43135999999996"><g><svg viewBox="0 0 244.43135999999996 51.9776097882353" height="51.9776097882353" width="244.43135999999996"><g><svg viewBox="0 0 244.43135999999996 51.9776097882353" height="51.9776097882353" width="244.43135999999996"><g transform="matrix(1,0,0,1,0,0)"><svg width="244.43135999999996" viewBox="3.8499999046325684 -35.70000076293945 169.989990234375 36.150001525878906" height="51.9776097882353" data-palette-color="#0063db"><path d="M7.9-14.2L7.9 0 3.85 0 3.85-33.7 8.95-33.7 17.4-19.5 25.95-4.9Q25.75-9.75 25.75-19.45L25.75-19.45 25.75-33.7 29.8-33.7 29.8 0 24.7 0 16.25-14.1Q13.7-18.35 11.55-22.03 9.4-25.7 8.5-27.3L8.5-27.3 7.65-28.85Q7.9-23.65 7.9-14.2L7.9-14.2ZM55.8-5L55.8-1.3Q52.85 0.25 48.6 0.25L48.6 0.25Q42.85 0.25 39.32-3.28 35.8-6.8 35.8-12.6L35.8-12.6Q35.8-18.65 38.95-22.15 42.1-25.65 47.05-25.65L47.05-25.65Q51.8-25.65 54.6-22.6 57.4-19.55 57.4-13.95L57.4-13.95Q57.4-12.35 57.15-11L57.15-11 39.85-11Q40.3-7.25 42.7-5.25 45.1-3.25 49-3.25L49-3.25Q53.25-3.25 55.8-5L55.8-5ZM47.05-22.2L47.05-22.2Q44.2-22.2 42.2-20.15 40.2-18.1 39.85-14.3L39.85-14.3 53.45-14.3 53.45-15.3Q53.45-18.45 51.75-20.33 50.05-22.2 47.05-22.2ZM83.09-25.35L83.09 0 79.15 0 79.15-4.4Q77.15 0.3 71.2 0.3L71.2 0.3Q67.45 0.3 65.27-1.93 63.1-4.15 63.1-7.9L63.1-7.9 63.1-25.35 67.05-25.35 67.05-8.9Q67.05-6.15 68.45-4.7 69.84-3.25 72.25-3.25L72.25-3.25Q75.4-3.25 77.27-5.45 79.15-7.65 79.15-11.4L79.15-11.4 79.15-25.35 83.09-25.35ZM110.09-8.95L110.09-8.95Q110.09-4.5 107.04-2.08 103.99 0.35 99.19 0.35L99.19 0.35Q93.89 0.35 90.19-1.8L90.19-1.8 90.19-6.15Q93.84-3.4 99.09-3.4L99.09-3.4Q102.24-3.4 104.04-4.8 105.84-6.2 105.84-8.85L105.84-8.85Q105.84-9.95 105.42-10.83 104.99-11.7 104.02-12.43 103.04-13.15 102.17-13.63 101.29-14.1 99.79-14.8L99.79-14.8Q99.49-14.95 98.89-15.2L98.89-15.2Q96.74-16.15 95.62-16.75 94.49-17.35 92.97-18.53 91.44-19.7 90.74-21.25 90.04-22.8 90.04-24.85L90.04-24.85Q90.04-29.15 93.12-31.58 96.19-34 100.84-34L100.84-34Q105.19-34 108.24-32.45L108.24-32.45 108.24-28.2Q105.19-30.2 100.94-30.2L100.94-30.2Q97.89-30.2 96.09-28.78 94.29-27.35 94.29-25.05L94.29-25.05Q94.29-23.85 94.77-22.9 95.24-21.95 96.44-21.13 97.64-20.3 98.49-19.88 99.34-19.45 101.14-18.65L101.14-18.65Q102.84-17.9 103.74-17.48 104.64-17.05 106.07-16.13 107.49-15.2 108.22-14.33 108.94-13.45 109.52-12.03 110.09-10.6 110.09-8.95ZM138.89-12.6L138.89-12.6Q138.89-6.95 135.69-3.25 132.49 0.45 126.89 0.45L126.89 0.45Q121.44 0.45 118.27-3.23 115.09-6.9 115.09-12.5L115.09-12.5Q115.09-18.15 118.37-21.93 121.64-25.7 126.89-25.7L126.89-25.7Q132.64-25.7 135.77-22 138.89-18.3 138.89-12.6ZM119.19-12.55L119.19-12.55Q119.19-8.6 121.29-5.83 123.39-3.05 126.89-3.05L126.89-3.05Q130.69-3.05 132.74-5.78 134.79-8.5 134.79-12.55L134.79-12.55Q134.79-16.75 132.84-19.48 130.89-22.2 126.89-22.2L126.89-22.2Q123.29-22.2 121.24-19.4 119.19-16.6 119.19-12.55ZM156.44-25.35L156.44-22.15 150.84-22.15 150.84 0 146.89 0 146.89-22.15 142.54-22.15 142.54-25.35 146.89-25.35 146.89-27.7Q146.89-31.4 148.86-33.55 150.84-35.7 154.34-35.7L154.34-35.7Q155.54-35.7 156.79-35.35L156.79-35.35 156.79-31.75Q155.59-32.15 154.49-32.15L154.49-32.15Q152.89-32.15 151.86-31.05 150.84-29.95 150.84-27.65L150.84-27.65 150.84-25.35 156.44-25.35ZM173.84-4.4L173.84-0.65Q172.19 0.25 170.14 0.25L170.14 0.25Q162.64 0.25 162.64-7.4L162.64-7.4 162.64-22.15 158.59-22.15 158.59-25.35 162.64-25.35 162.64-31.65 166.59-31.65 166.59-25.35 173.59-25.35 173.59-22.15 166.59-22.15 166.59-7.3Q166.59-3.25 170.39-3.25L170.39-3.25Q172.34-3.25 173.84-4.4L173.84-4.4Z" opacity="1" transform="matrix(1,0,0,1,0,0)" fill="#ffffff" class="undefined-text-0" data-fill-palette-color="primary" id="text-0"></path></svg></g></svg></g></svg></g></svg></g></svg></g></svg></g></svg></g><g><path d="M0 123.6c0-68.262 55.338-123.6 123.6-123.6 57.151 0 105.242 38.789 119.384 91.476l-2.429 0c-14.08-51.378-61.109-89.132-116.955-89.132-66.968 0-121.256 54.288-121.256 121.256 0 66.968 54.288 121.256 121.256 121.256 55.847 0 102.875-37.754 116.955-89.132h2.429c-14.142 52.687-62.233 91.476-119.384 91.476-68.262 0-123.6-55.338-123.6-123.6z" fill="#ffffff" stroke="transparent" data-fill-palette-color="tertiary"></path></g></svg></g><defs></defs></svg><rect width="395.52" height="247.2" fill="none" stroke="none" visibility="hidden"></rect></g></svg></g></svg>